<?xml version="1.0" encoding="UTF-8" standalone="no"?>
<!-- Created with Inkscape (http://www.inkscape.org/) -->

<svg
   version="1.1"
   id="svg1"
   width="86.4963"
   height="96.039001"
   viewBox="0 0 86.496298 96.039"
   sodipodi:docname="delete logo.jpg"
   xmlns:inkscape="http://www.inkscape.org/namespaces/inkscape"
   xmlns:sodipodi="http://sodipodi.sourceforge.net/DTD/sodipodi-0.dtd"
   xmlns="http://www.w3.org/2000/svg"
   xmlns:svg="http://www.w3.org/2000/svg">
  <defs
     id="defs1" />
  <sodipodi:namedview
     id="namedview1"
     pagecolor="#ffffff"
     bordercolor="#000000"
     borderopacity="0.25"
     inkscape:showpageshadow="2"
     inkscape:pageopacity="0.0"
     inkscape:pagecheckerboard="0"
     inkscape:deskcolor="#d1d1d1"
     showgrid="false">
    <inkscape:page
       x="0"
       y="0"
       width="86.4963"
       height="96.039001"
       id="page2"
       margin="0"
       bleed="0" />
  </sodipodi:namedview>
  <g
     inkscape:groupmode="layer"
     inkscape:label="Image"
     id="g1"
     transform="translate(-33.78975,-26.488238)">
    <path
       style="fill:#040404;stroke:none"
       d="m 59.759902,38.354004 h -12.32 c -5.327705,0 -10.886275,0.175576 -13.083333,6.08 -0.804753,2.162715 -0.516667,4.614102 -0.516667,6.88 0,2.094942 -0.197979,4.228057 0.492592,6.24 0.717505,2.09042 2.214039,3.848223 4.147408,4.910127 0.763364,0.419278 2.742832,0.69084 3.195556,1.380117 0.394673,0.600889 0.164444,1.819444 0.164444,2.509756 v 6.4 24.639999 c 0,4.413217 -0.590752,9.307007 0.599258,13.599997 1.663222,6.0001 6.987109,10.556 13.160742,11.3142 3.782647,0.46455 7.867515,0.0458 11.68,0.0458 h 23.040001 c 6.140498,0 11.901927,0.38276 16.799997,-4.02728 5.49017,-4.94313 5.12,-11.63217 5.12,-18.372717 V 75.954005 c 0,-3.729766 -0.58576,-7.998194 0.0237,-11.672969 0.17137,-1.033262 2.34385,-1.289903 3.1763,-1.73209 1.89499,-1.006592 3.23958,-2.57001 4.11,-4.514942 0.80448,-1.797597 0.69,-3.680723 0.69,-5.6 0,-3.525791 0.48969,-7.224336 -1.72111,-10.24 -2.45547,-3.349395 -5.94953,-3.84 -9.79889,-3.84 h -9.439999 c -1.658035,0 -3.501258,0.225381 -5.119998,-0.16 0.681221,-5.147715 -1.918233,-10.112442 -7.2,-11.376172 -2.697891,-0.645508 -6.02958,-0.143828 -8.8,-0.143828 -6.407818,0 -15.272281,-1.543936 -17.836915,6.24 -0.582461,1.767832 -0.491577,3.609638 -0.563086,5.44 m 28.640001,0 H 65.679902 c 0,-1.843438 -0.336855,-3.899815 1.286421,-5.194688 1.275703,-1.017617 3.110005,-0.725312 4.633579,-0.725312 h 10.720001 c 1.577314,0 3.476679,-0.329756 4.793584,0.725185 1.621709,1.299102 1.286416,3.34833 1.286416,5.194815 m -45.440001,5.806299 c 3.665649,-0.477764 7.66187,-0.0463 11.36,-0.0463 h 22.720001 22.719998 c 3.698139,0 7.694349,-0.431465 11.359999,0.0463 4.21365,0.549189 3.36,5.157168 3.36,8.273701 0,1.802881 0.17094,3.836963 -1.60061,4.925801 -1.46397,0.899795 -3.63,0.514199 -5.27939,0.514199 h -11.839997 -38.080001 -10.88 c -1.564834,0 -3.661152,0.362979 -5.12,-0.269512 -2.187688,-0.948476 -2.08,-3.156953 -2.08,-5.170488 0,-3.106787 -0.844248,-7.725742 3.36,-8.273701 M 106.4799,63.794004 v 34.719999 c 0,5.086077 0.94665,10.953217 -2.7663,15.033697 -3.23501,3.55525 -7.933404,3.0463 -12.273697,3.0463 H 62.479902 c -4.601914,0 -9.513208,0.43361 -12.656172,-3.68011 -2.861597,-3.74545 -2.223828,-8.52459 -2.223828,-12.959887 V 75.154005 67.634004 c 0,-1.282812 -0.204961,-2.765302 0.16,-4 l 6.4,0.16 h 12.48 39.839998 M 65.839902,72.67919 c -2.99914,0.709673 -2.24,4.660335 -2.24,6.954815 V 101.234 c 0,2.33518 -0.451587,7.1051 3.36,6.44655 3.204722,-0.5537 2.4,-4.55641 2.4,-6.92655 V 78.994005 c 0,-2.37517 0.421226,-7.247408 -3.52,-6.314815 m 21.120001,-4.93e-4 c -3.043926,0.69874 -2.24,4.633198 -2.24,6.955308 V 101.234 c 0,2.31516 -0.519092,7.24893 3.36,6.44877 3.147138,-0.64918 2.4,-4.56017 2.4,-6.92877 V 78.994005 c 0,-2.36504 0.378838,-7.210298 -3.52,-6.315308 z"
       id="path1" />
  </g>
</svg>
